<svg class="icon" viewBox="0 0 1068 1024" xmlns="http://www.w3.org/2000/svg" width="33.375" height="32"><defs><style/></defs><path d="M553.237 778.224h-.05c-7.99 0-16.092-.08-24.08-.231-139.472-2.679-270.492-28.227-368.938-71.938C55.611 659.625-1.269 597.068.02 529.92c1.252-65.252 57.605-124.407 158.689-166.561 94.735-39.506 220.97-61.264 355.444-61.264 7.972 0 16.073.077 24.073.226 139.475 2.673 270.495 28.221 368.947 71.943 104.553 46.43 161.437 108.98 160.144 176.124-1.248 65.262-57.613 124.412-158.693 166.567-94.715 39.508-220.944 61.269-355.386 61.269m-39.085-431.16c-128.673 0-248.76 20.528-338.137 57.802-82.403 34.366-130.158 80.258-131.038 125.92-.904 47.198 47.734 96.106 133.445 134.166 93.081 41.336 217.934 65.515 351.543 68.075 7.702.152 15.512.224 23.224.224h.046c128.648 0 248.713-20.528 338.087-57.796 82.392-34.364 130.153-80.26 131.03-125.926.906-47.205-47.732-96.111-133.441-134.162-93.09-41.346-217.939-65.518-351.545-68.08a1224.355 1224.355 0 0 0-23.214-.223" fill="#515151"/><path d="M756.941 1005.515c-59.176 0-131.026-32.34-207.793-93.514-75.843-60.441-149.83-143.674-213.94-240.688-76.91-116.372-130.195-238.778-150.027-344.65-21.076-112.447-1.83-194.769 54.203-231.8C259.526 81.556 283.421 74.8 310.39 74.8c59.177 0 131.035 32.332 207.792 93.514C594.03 228.76 668.014 311.99 732.123 409.008 809.027 525.382 862.305 647.773 882.15 753.65c21.07 112.456 1.82 194.771-54.209 231.803-20.144 13.311-44.028 20.062-71 20.062M310.39 119.77c-18.001 0-33.548 4.246-46.208 12.614-39.39 26.032-52.073 93.829-34.802 186 18.758 100.116 69.668 216.65 143.35 328.13 61.543 93.136 132.243 172.772 204.446 230.318 67.73 53.982 131.579 83.713 179.766 83.713 18 0 33.55-4.247 46.205-12.606 39.388-26.034 52.08-93.831 34.798-186.008-18.754-100.11-69.662-216.642-143.339-328.127-61.548-93.135-132.243-172.777-204.451-230.319-67.737-53.98-131.575-83.715-179.765-83.715" fill="#515151"/><path d="M336.245 1022.571c-21.815 0-41.914-4.884-59.874-14.774-58.847-32.38-84.69-112.869-72.783-226.66 11.211-107.126 54.414-233.438 121.658-355.652 73.393-133.382 167.843-246.712 259.133-310.93 10.16-7.147 24.19-4.707 31.334 5.448 7.145 10.163 4.707 24.185-5.456 31.332-85.885 60.418-175.404 168.245-245.604 295.836-64.417 117.082-105.735 237.347-116.342 338.652-9.757 93.266 8.37 159.819 49.734 182.574 41.363 22.758 107.278 2.454 180.845-55.713 79.893-63.172 159.371-162.448 223.786-279.529 70.2-127.587 113.367-260.914 118.428-365.804.605-12.404 11.138-21.978 23.546-21.378 12.402.6 21.976 11.14 21.38 23.544-5.38 111.497-50.557 251.94-123.949 385.319-67.24 122.217-150.808 226.318-235.301 293.128-62.345 49.294-120.884 74.607-170.535 74.607" fill="#515151"/><path d="M655.305 113.592c0 29.6 12.182 59.013 33.111 79.95 20.93 20.929 50.348 33.11 79.952 33.11 29.602 0 59.014-12.181 79.945-33.11 20.934-20.937 33.112-50.352 33.112-79.95 0-29.602-12.178-59.021-33.112-79.95C827.382 12.717 797.97.528 768.368.528c-29.604 0-59.023 12.189-79.952 33.112-20.93 20.93-33.11 50.349-33.11 79.95" fill="#515151"/></svg>