<?xml version="1.0" standalone="no"?><!DOCTYPE svg PUBLIC "-//W3C//DTD SVG 1.1//EN" "http://www.w3.org/Graphics/SVG/1.1/DTD/svg11.dtd"><svg t="1534517135467" class="icon" style="" viewBox="0 0 1068 1024" version="1.1" xmlns="http://www.w3.org/2000/svg" p-id="2352" xmlns:xlink="http://www.w3.org/1999/xlink" width="33.375" height="32"><defs><style type="text/css"></style></defs><path d="M553.237282 778.223935h-0.050203c-7.989452 0-16.091861-0.080683-24.079521-0.231292-139.472959-2.67869-270.492088-28.226649-368.938421-71.937345-104.558551-46.430623-161.438574-108.987174-160.149432-176.135509 1.25149-65.251378 57.604382-124.406674 158.688166-166.561075 94.734895-39.506192 220.970393-61.263823 355.444566-61.263823 7.971523 0 16.072139 0.077097 24.072349 0.225913 139.474752 2.673311 270.495674 28.22127 368.947386 71.942723 104.553172 46.430623 161.436781 108.980002 160.144053 176.124751-1.247904 65.262135-57.613346 124.412053-158.693545 166.566455-94.715172 39.507985-220.943499 61.269202-355.385398 61.269202M514.152437 347.064247c-128.673931 0-248.761352 20.527657-338.137075 57.801608-82.402881 34.365761-130.158506 80.258495-131.038851 125.919936-0.903654 47.198012 47.734109 96.106513 133.44501 134.165783 93.081781 41.33681 217.934903 65.514943 351.543075 68.075298 7.702578 0.152402 15.512734 0.224121 23.224276 0.22412h0.046617c128.647036 0 248.712942-20.527657 338.086871-57.796228 82.392124-34.363968 130.153127-80.260288 131.029887-125.925316 0.905447-47.205184-47.732316-96.111892-133.441425-134.162197-93.090746-41.345774-217.938489-65.518529-351.544867-68.080676a1224.354881 1224.354881 0 0 0-23.213518-0.222328" p-id="2353" fill="#515151"></path><path d="M756.941422 1005.51453c-59.176812 0-131.026301-32.339711-207.793893-93.513886-75.842422-60.440852-149.829126-143.673876-213.940178-240.68763-76.909236-116.372397-130.194365-238.778122-150.026351-344.649123-21.076304-112.447597-1.830617-194.769795 54.203127-231.801695 20.14217-13.305594 44.037015-20.061486 71.005002-20.061487 59.176812 0 131.035266 32.332539 207.7921 93.513886 75.847801 60.446231 149.832711 143.675669 213.94197 240.693009 76.903858 116.37419 130.181814 238.765572 150.026352 344.641952 21.070925 112.456562 1.81986 194.771588-54.208506 231.803488-20.143962 13.310973-44.02805 20.061486-70.999623 20.061486M310.389129 119.770066c-18.001369 0-33.548169 4.245741-46.208296 12.613509-39.389649 26.03206-52.073084 93.829448-34.801451 186.000403 18.758 100.115583 69.667451 216.649348 143.349349 328.130536 61.543526 93.13557 132.243724 172.771906 204.446428 230.317121 67.729255 53.982592 131.578534 83.713539 179.766263 83.713538 17.999576 0 33.549962-4.247534 46.204709-12.606337 39.387857-26.033853 52.080256-93.831241 34.797866-186.007574-18.754415-100.110204-69.662072-216.642176-143.338592-328.126951-61.548905-93.13557-132.243724-172.777285-204.451806-230.318913C422.417172 149.504599 358.578651 119.770066 310.389129 119.770066" p-id="2354" fill="#515151"></path><path d="M336.245478 1022.571007c-21.815006 0-41.914144-4.884037-59.874275-14.774032-58.846906-32.379156-84.690705-112.868944-72.783624-226.659472 11.211411-107.126077 54.414697-233.438672 121.658059-355.65255 73.393232-133.382257 167.843046-246.711993 259.133654-310.930622 10.15894-7.146759 24.188892-4.706533 31.333858 5.448821 7.144966 10.162526 4.706533 24.185306-5.455993 31.332064-85.88482 60.417544-175.403979 168.24467-245.60394 295.83565-64.417649 117.082412-105.734736 237.347336-116.341917 338.651655-9.757316 93.266457 8.369561 159.819527 49.733265 182.574046 41.363704 22.758106 107.278479 2.454569 180.845628-55.712803 79.89273-63.171538 159.371286-162.448014 223.785348-279.528632 70.199961-127.587394 113.367388-260.914069 118.428929-365.804318 0.604229-12.403732 11.137899-21.978166 23.545217-21.377523 12.401939 0.59885 21.976373 11.139692 21.381108 23.543424-5.380688 111.497325-50.558029 251.940279-123.949468 385.31895C674.841552 777.053129 591.273243 881.154473 506.779764 947.963938c-62.344981 49.293988-120.883498 74.607069-170.534286 74.607069" p-id="2355" fill="#515151"></path><path d="M655.305404 113.591509c0 29.60006 12.181405 59.013652 33.110686 79.950105 20.929281 20.929281 50.348252 33.110686 79.951898 33.110686 29.601853 0 59.013652-12.181405 79.944726-33.110686 20.93466-20.936453 33.112479-50.351838 33.112479-79.950105 0-29.601853-12.177819-59.020824-33.112479-79.950106C827.38164 12.717501 797.969841 0.528925 768.367988 0.528925c-29.603646 0-59.022617 12.188577-79.951898 33.112478-20.929281 20.929281-33.110686 50.348252-33.110686 79.950106" p-id="2356" fill="#515151"></path></svg>