<svg xmlns="http://www.w3.org/2000/svg" viewBox="0 0 473.935 473.935"><circle cx="236.967" cy="236.967" r="236.967" fill="#ffc10e"/><g fill="#333"><circle cx="164.938" cy="192.665" r="37.216"/><circle cx="305.667" cy="192.665" r="37.216"/><path d="M318.258 101.309l-86.024 38.125h9.441c-28.673-12.707-57.343-25.418-86.016-38.125-10.926-4.842-20.453 11.274-9.441 16.153 15.469 6.855 30.933 13.714 46.398 20.569l29.785 13.201c4.034 1.789 9.961 5.635 14.556 5.635 4.595 0 10.522-3.847 14.556-5.635l29.788-13.201c15.469-6.855 30.937-13.714 46.402-20.569 11.004-4.879 1.477-20.995-9.445-16.153zM105.245 326.856h259.164c12.067 0 12.067-18.709 0-18.709H105.245c-12.067 0-12.067 18.709 0 18.709z"/></g></svg>