<svg xmlns="http://www.w3.org/2000/svg" viewBox="0 0 473.931 473.931"><circle cx="236.966" cy="236.966" r="236.966" fill="#ffc10e"/><g fill="#333"><path d="M106.883 85.989c25.141 18.817 50.282 37.638 75.423 56.456 9.669 7.237 18.978-9.018 9.44-16.153-25.141-18.817-50.282-37.638-75.423-56.456-9.664-7.24-18.977 9.014-9.44 16.153zM356.298 69.832c-25.141 18.817-50.282 37.638-75.423 56.456-9.538 7.139-.228 23.39 9.44 16.153 25.141-18.817 50.282-37.638 75.423-56.456 9.538-7.135.229-23.389-9.44-16.153z"/><circle cx="164.937" cy="155.231" r="37.216"/><circle cx="305.664" cy="155.231" r="37.216"/></g><path d="M392.514 377.719c0-85.911-69.645-155.56-155.56-155.56s-155.56 69.649-155.56 155.56h311.12z" fill="#fff"/><g fill="#cccbcb"><path d="M306.177 377.719V238.413a154.016 154.016 0 0 0-18.709-7.82v147.126h18.709zM190.59 377.719V229.19c-6.432 2.006-12.666 4.453-18.709 7.244v141.289h18.709v-.004z"/></g></svg>