<svg xmlns="http://www.w3.org/2000/svg" viewBox="0 0 473.931 473.931"><circle cx="236.966" cy="236.966" r="236.966" fill="#ffc10e"/><g fill="#333"><path d="M374.187 172.974c-16.801-35.584-57.331-51.868-94.057-37.59-11.117 4.325-6.286 22.421 4.973 18.043 29.522-11.48 59.371.277 72.927 28.987 5.149 10.908 21.276 1.407 16.157-9.44zM122.243 182.328c13.556-28.711 43.404-40.471 72.927-28.987 11.259 4.378 16.09-13.717 4.973-18.043-36.725-14.282-77.252 2.006-94.057 37.59-5.118 10.844 11.009 20.344 16.157 9.44zM283.158 287.816c0 39.981-20.684 72.384-46.203 72.384-25.511 0-46.203-32.404-46.203-72.384 0-39.962 20.692-72.384 46.203-72.384 25.518 0 46.203 32.422 46.203 72.384z"/></g></svg>