<svg xmlns="http://www.w3.org/2000/svg" viewBox="0 0 473.931 473.931"><circle cx="236.966" cy="236.966" r="236.966" fill="#ffc10e"/><g fill="#333"><circle cx="346.15" cy="335.711" r="25.762"/><path d="M243.499 112.908c1.684 31.251 23.992 53.56 55.243 55.247 31.184 1.68 53.698-26.525 55.247-55.247.651-12.063-18.061-12-18.709 0-2.537 47.094-70.536 47.094-73.069 0-.651-12-19.363-12.064-18.712 0zM108.694 112.908c1.684 31.255 23.988 53.56 55.243 55.247 31.184 1.68 53.694-26.525 55.243-55.247.651-12.063-18.061-12-18.709 0-2.537 47.094-70.532 47.094-73.065 0-.65-12-19.363-12.064-18.712 0z"/></g></svg>