<svg xmlns="http://www.w3.org/2000/svg" viewBox="0 0 473.931 473.931"><circle cx="236.966" cy="236.966" r="236.966" fill="#ffc10e"/><g fill="#333"><path d="M230.328 309.417c-34.514 58.038-123.336 39.532-129.383-28.894-1.051-11.921-19.771-12.022-18.709 0 3.592 40.628 30.608 73.069 70.865 81.844 37.294 8.127 74.454-11.682 93.376-43.505 6.182-10.399-9.994-19.802-16.149-9.445z"/><path d="M393.955 359.456c2.193-43.045-24.523-79.872-65.877-91.684-38.428-10.978-78.517 9.362-98.195 42.454-6.181 10.395 9.994 19.801 16.149 9.44 37.709-63.415 132.952-33.657 129.214 39.79-.613 12.063 18.099 12.004 18.709 0z"/><circle cx="164.937" cy="155.231" r="37.216"/><circle cx="305.664" cy="155.231" r="62.162"/></g></svg>