<svg xmlns="http://www.w3.org/2000/svg" viewBox="0 0 473.935 473.935"><circle cx="236.967" cy="236.967" r="236.967" fill="#ffc10e"/><path d="M357.644 355.144c-66.005-68.621-174.861-68.763-241.065-.341-8.389 8.666 4.827 21.912 13.227 13.227 59.266-61.249 155.52-61.088 214.61.341 8.378 8.715 21.591-4.531 13.228-13.227z" fill="#333"/><g fill="#75cdde"><path d="M116.893 124.849c-19.588 20.954-35.974 44.827-48.913 70.387-13.818 27.296-7.42 60.647 20.135 76.793 25.182 14.75 62.986 7.139 76.793-20.138 5.051-9.976 10.529-19.652 16.587-29.055 2.848-4.415 5.934-8.666 9.066-12.879-9.658 12.995 3.173-3.027 5.702-5.732 20.879-22.331 22.17-57.208 0-79.375-21.076-21.083-58.479-22.355-79.37-.001zM414.987 216.279c-13.643-32.157-31.708-61.126-54.776-87.427-20.183-23.016-58.81-20.565-79.375 0-22.683 22.683-20.153 56.396 0 79.375a197.717 197.717 0 0 1 5.841 6.818c-4.026-5.369-4.135-5.474-.333-.318 3.817 5.212 7.252 10.69 10.638 16.183 8.239 13.351 14.96 27.603 21.074 42.028 11.959 28.187 52.961 34.091 76.793 20.135 28.875-16.918 32.082-48.629 20.138-76.794z"/></g><g fill="#333"><circle cx="164.938" cy="155.232" r="37.216"/><circle cx="305.667" cy="155.232" r="37.216"/></g></svg>