<svg xmlns="http://www.w3.org/2000/svg" viewBox="0 0 473.931 473.931"><circle cx="236.966" cy="236.966" r="236.966" fill="#ffc10e"/><g fill="#75cdde"><path d="M366.532 278.29c-13.205 0-25.736-7.817-31.113-20.771-11.113-26.765-24.928-49.754-39.951-66.484-12.426-13.837-11.285-35.131 2.552-47.558 13.837-12.426 35.128-11.289 47.554 2.556 20.336 22.645 37.848 51.464 52.044 85.66 7.132 17.178-1.01 36.883-18.189 44.014a33.572 33.572 0 0 1-12.897 2.583zM113.465 278.29c-4.303 0-8.677-.831-12.902-2.582-17.178-7.128-25.32-26.836-18.189-44.014 14.196-34.196 31.708-63.015 52.044-85.66 12.426-13.833 33.717-14.982 47.554-2.556 13.837 12.426 14.978 33.721 2.552 47.558-15.023 16.729-28.838 39.715-39.951 66.484-5.372 12.953-17.907 20.77-31.108 20.77z"/></g><g fill="#333"><circle cx="164.937" cy="155.227" r="37.216"/><circle cx="305.664" cy="155.227" r="37.216"/><path d="M296.381 302.024c0 43.805-26.57 79.344-59.356 79.344s-59.356-35.539-59.356-79.344c0-43.827 26.57-79.348 59.356-79.348s59.356 35.52 59.356 79.348z"/></g></svg>