<svg xmlns="http://www.w3.org/2000/svg" viewBox="0 0 473.931 473.931"><circle cx="236.966" cy="236.966" r="236.966" fill="#ffc10e"/><path d="M81.391 237.123c0 85.911 69.649 155.56 155.56 155.56 85.915 0 155.564-69.649 155.564-155.56H81.391z" fill="#fff"/><g fill="#cccbcb"><path d="M167.728 237.123v139.306a154.55 154.55 0 0 0 18.709 7.82V237.123h-18.709zM283.319 237.123v148.529c6.432-2.006 12.666-4.453 18.709-7.24V237.123h-18.709z"/></g><g fill="#333"><path d="M219.181 158.793c-1.684-31.255-23.992-53.56-55.243-55.243-31.184-1.68-53.698 26.522-55.243 55.243-.651 12.063 18.061 12 18.709 0 2.537-47.09 70.536-47.09 73.069 0 .647 12 19.359 12.063 18.708 0zM353.985 158.793c-1.684-31.255-23.992-53.56-55.243-55.243-31.184-1.68-53.694 26.522-55.243 55.243-.651 12.063 18.061 12 18.709 0 2.537-47.09 70.532-47.09 73.069 0 .647 12 19.36 12.063 18.708 0z"/></g></svg>