<svg xmlns="http://www.w3.org/2000/svg" viewBox="0 0 473.931 473.931"><circle cx="236.966" cy="236.966" r="236.966" fill="#81c241"/><circle cx="236.966" cy="318.274" r="28.254" fill="#5e9a42"/><g fill="#333"><circle cx="164.937" cy="155.227" r="37.216"/><circle cx="305.664" cy="155.227" r="37.216"/></g><g fill="#67af45"><path d="M203.907 277.758c0 44.617-36.183 80.815-80.807 80.815-44.617 0-80.8-36.198-80.8-80.815 0-44.624 36.183-80.807 80.8-80.807 44.624.004 80.807 36.183 80.807 80.807zM432.054 277.758c0 44.617-36.183 80.815-80.807 80.815-44.632 0-80.815-36.198-80.815-80.815 0-44.624 36.183-80.807 80.815-80.807 44.624.004 80.807 36.183 80.807 80.807z"/></g></svg>