<svg xmlns="http://www.w3.org/2000/svg" viewBox="0 0 473.931 473.931"><circle cx="236.966" cy="236.966" r="236.966" fill="#ffc10e"/><g fill="#ed3533"><path d="M182.13 109.97c-14.133 0-27.262 6.892-35.154 18.432l-1.628 2.069-1.089-1.388c-7.802-11.962-20.954-19.109-35.232-19.109-24.363 0-42.042 17.684-42.042 42.039 0 35.962 65.107 88.968 69.855 92.784 2.241 2.144 5.175 3.323 8.288 3.323s6.047-1.175 8.288-3.326c4.763-3.847 70.753-57.683 70.753-92.781 0-24.359-17.68-42.043-42.039-42.043zM366.696 109.97c-14.133 0-27.262 6.892-35.154 18.432l-1.628 2.069-1.089-1.388c-7.802-11.962-20.954-19.109-35.232-19.109-24.363 0-42.042 17.684-42.042 42.039 0 35.962 65.107 88.968 69.855 92.784a11.917 11.917 0 0 0 8.288 3.323c3.109 0 6.043-1.175 8.288-3.326 4.76-3.843 70.749-57.683 70.749-92.781.004-24.359-17.676-42.043-42.035-42.043z"/></g><path d="M343.254 316.86c-59.281 60.325-154.662 59.853-213.449-.898-8.4-8.681-21.616 4.561-13.227 13.227 65.769 67.969 173.644 68.332 239.903.898 8.46-8.606-4.763-21.841-13.227-13.227z" fill="#333"/></svg>