<svg xmlns="http://www.w3.org/2000/svg" viewBox="0 0 473.931 473.931"><circle cx="236.966" cy="236.966" r="236.966" fill="#ffc10e"/><g fill="#333"><path d="M213.393 155.231c-2.66 62.491-94.225 62.491-96.885 0-1.16-27.229 22.922-47.356 48.433-48.441 27.236-1.16 47.366 22.922 48.452 48.441.513 12.019 19.221 12.067 18.709 0-1.605-37.698-29.463-65.548-67.157-67.15-37.65-1.601-65.642 31.869-67.142 67.15-1.601 37.642 31.861 65.649 67.142 67.15 37.653 1.601 65.657-31.865 67.157-67.15.512-12.068-18.197-12.019-18.709 0zM353.709 155.231c-2.66 62.491-94.225 62.491-96.885 0-1.16-27.229 22.922-47.356 48.433-48.441 27.236-1.16 47.366 22.922 48.452 48.441.513 12.019 19.221 12.067 18.709 0-1.605-37.698-29.463-65.548-67.157-67.15-37.65-1.601-65.642 31.869-67.142 67.15-1.601 37.642 31.861 65.649 67.142 67.15 37.653 1.601 65.657-31.865 67.157-67.15.512-12.068-18.197-12.019-18.709 0zM343.25 316.86c-59.281 60.336-154.658 59.849-213.449-.898-8.4-8.685-21.616 4.561-13.227 13.227 65.769 67.965 173.64 68.343 239.903.898 8.461-8.61-4.759-21.845-13.227-13.227z"/><path d="M104.668 146.209c-26.121 4.988-62.319 9.972-92.238 14.956a235.037 235.037 0 0 0-5.759 19.887c31.588-5.601 73.623-11.203 102.977-16.804 11.839-2.26 6.807-20.288-4.98-18.039zM365.742 146.209c-11.787-2.249-16.819 15.779-4.977 18.039 30.252 5.774 74.637 11.543 106.588 17.317a236.393 236.393 0 0 0-5.706-19.895c-30.641-5.152-68.893-10.308-95.905-15.461zM258.17 126.337c12.067 0 12.067-18.709 0-18.709h-46.772c-12.067 0-12.067 18.709 0 18.709h46.772z"/><circle cx="164.937" cy="155.231" r="25.99"/><circle cx="305.664" cy="155.231" r="24.119"/></g></svg>