<svg xmlns="http://www.w3.org/2000/svg" viewBox="0 0 473.931 473.931"><circle cx="236.966" cy="236.966" r="236.966" fill="#ffc10e"/><g fill="#333"><circle cx="164.937" cy="155.227" r="37.216"/><circle cx="305.664" cy="155.227" r="37.216"/></g><path d="M361.076 316.534c7.154 2.78 10.694 10.836 7.91 17.99l-10.073 25.904c-2.78 7.154-10.836 10.698-17.99 7.914L112.825 279.61c-7.154-2.78-10.698-10.836-7.914-17.994l10.077-25.9c2.78-7.154 10.836-10.694 17.99-7.914l228.098 88.732z" fill="#efefef"/><path d="M337.772 223.353c7.027-3.091 15.225.097 18.32 7.124l11.188 25.444c3.091 7.023-.094 15.225-7.121 18.316l-224.03 98.55c-7.027 3.091-15.229-.101-18.32-7.128l-11.192-25.44c-3.091-7.023.101-15.225 7.124-18.32l224.031-98.546z" fill="#fff"/></svg>