<svg xmlns="http://www.w3.org/2000/svg" viewBox="0 0 473.935 473.935"><circle cx="236.967" cy="236.967" r="236.967" fill="#ffc10e"/><g fill="#333"><circle cx="164.938" cy="155.232" r="37.216"/><circle cx="305.667" cy="155.232" r="37.216"/><path d="M105.279 326.583h259.164c12.067 0 12.067-18.709 0-18.709H105.279c-12.067 0-12.067 18.709 0 18.709z"/><path d="M112.935 300.533v16.838c0 6.032 9.354 6.032 9.354 0v-16.838c0-6.036-9.354-6.036-9.354 0zM170.932 300.533v16.838c0 6.032 9.354 6.032 9.354 0v-16.838c.001-6.036-9.354-6.036-9.354 0zM228.93 300.533v16.838c0 6.032 9.354 6.032 9.354 0v-16.838c.001-6.036-9.354-6.036-9.354 0zM286.928 300.533v16.838c0 6.032 9.354 6.032 9.354 0v-16.838c0-6.036-9.354-6.036-9.354 0zM141.619 316.436v16.838c0 6.032 9.354 6.032 9.354 0v-16.838c.001-6.036-9.354-6.036-9.354 0zM199.617 316.436v16.838c0 6.032 9.354 6.032 9.354 0v-16.838c0-6.036-9.354-6.036-9.354 0zM257.615 316.436v16.838c0 6.032 9.354 6.032 9.354 0v-16.838c0-6.036-9.354-6.036-9.354 0zM315.612 316.436v16.838c0 6.032 9.354 6.032 9.354 0v-16.838c.001-6.036-9.354-6.036-9.354 0zM390.384 335.519h-30.338c-4.977 0-30.151-14.937-30.151-19.091 0-4.153 24.894-19.091 30.151-19.091h30.338c10.541.004 10.541 38.182 0 38.182z"/></g></svg>