<svg xmlns="http://www.w3.org/2000/svg" viewBox="0 0 473.931 473.931"><circle cx="236.966" cy="236.966" r="236.966" fill="#ffc10e"/><g fill="#333"><circle cx="164.937" cy="189.367" r="37.216"/><circle cx="305.664" cy="189.367" r="37.216"/><path d="M236.951 332.747c-41.358-.797-78.39-16.995-107.145-46.712-8.4-8.685-21.616 4.561-13.227 13.227 32.119 33.197 74.218 51.307 120.372 52.194 12.074.232 12.048-18.481 0-18.709zM143.171 115.77c24.83 7.929 46.301 21.395 64.325 40.201 8.359 8.726 21.575-4.524 13.227-13.227-20.224-21.104-44.759-36.127-72.575-45.017-11.529-3.678-16.423 14.387-4.977 18.043zM261.119 154.565c23.031-12.352 47.307-18.481 73.436-18.544 12.063-.03 12.067-18.739 0-18.709-29.358.071-57.021 7.233-82.876 21.104-10.635 5.698-1.191 21.851 9.44 16.149z"/></g></svg>