<svg xmlns="http://www.w3.org/2000/svg" viewBox="0 0 473.931 473.931"><circle cx="236.966" cy="236.966" r="236.966" fill="#ffc10e"/><g fill="#333"><circle cx="164.937" cy="152.997" r="37.216"/><circle cx="305.664" cy="152.997" r="37.216"/><path d="M236.951 362.678c-41.358-.797-78.39-16.995-107.145-46.712-8.4-8.685-21.616 4.561-13.227 13.227 32.119 33.197 74.218 51.307 120.372 52.194 12.074.231 12.048-18.481 0-18.709zM120.301 105.944c19.966-16.759 42.907-27.566 68.388-32.845 11.809-2.447 6.795-20.482-4.977-18.043-28.722 5.953-54.218 18.836-76.639 37.661-9.252 7.764 4.057 20.931 13.228 13.227zM291.079 68.152c24.871 7.794 46.42 21.126 64.553 39.835 8.408 8.677 21.624-4.565 13.227-13.227-20.34-20.988-44.939-35.917-72.803-44.654-11.548-3.615-16.449 14.447-4.977 18.046z"/></g></svg>