<svg xmlns="http://www.w3.org/2000/svg" viewBox="0 0 473.935 473.935"><circle cx="236.967" cy="236.967" r="236.967" fill="#ffc10e"/><g fill="#333"><circle cx="164.938" cy="207.632" r="37.216"/><circle cx="313.637" cy="207.632" r="37.216"/><path d="M280.432 101.047c12.456-14.571 24.913-29.137 37.366-43.708h-13.227l75.423 60.527c9.31 7.472 22.642-5.676 13.227-13.227l-75.423-60.527c-3.719-2.986-9.658-4.176-13.227 0-12.456 14.571-24.913 29.137-37.366 43.708-7.794 9.115 5.377 22.413 13.227 13.227zM208.635 87.82L171.27 44.112c-3.57-4.176-9.508-2.986-13.227 0-25.145 20.176-50.282 40.351-75.423 60.527-9.414 7.551 3.918 20.7 13.227 13.227l75.423-60.527h-13.227l37.365 43.708c7.85 9.186 21.021-4.112 13.227-13.227zM178.592 369.397c35.831 11.326 71.659 22.66 107.49 33.99 11.54 3.648 16.438-14.421 4.977-18.043-35.831-11.326-71.659-22.66-107.49-33.99-11.54-3.648-16.435 14.417-4.977 18.043z"/></g></svg>